<?xml version="1.0" encoding="utf-8"?>
<svg width="24px" height="24px" viewbox="0 0 24 24" version="1.1" xmlns:xlink="http://www.w3.org/1999/xlink" xmlns="http://www.w3.org/2000/svg">
  <g id="Group-8复制">
    <path d="M0 0L24 0L24 24L0 24L0 0Z" id="icon_group_fill" fill="none" fill-rule="evenodd" stroke="none" />
    <path d="M11.5195 0L6.75647 0C6.17207 0 5.70512 0.534075 5.70512 1.19415C5.70512 1.85567 6.17319 2.39121 6.75647 2.39121L11.5488 2.39121C12.1036 2.39121 12.5714 1.85567 12.5714 1.19415C12.5717 0.534105 12.1042 0 11.5195 0L11.5195 0L11.5195 0ZM14.2822 1.2C14.2822 2.75537 14.0102 3.6 12.5684 3.6L5.7129 3.6C4.27742 3.6 3.99904 2.48817 3.99904 1.2L1.71386 1.2C0.751484 1.2 0 1.93975 0 3.00002L0 19.2C0 20.3894 0.616482 21 1.71386 21L16.5674 21C17.4829 21 18.2813 20.4138 18.2813 19.2L18.2813 3.00002C18.2813 1.829 17.643 1.2 16.5674 1.2L14.2822 1.2ZM13.7221 16.1976L4.67299 16.1976C4.33964 16.1976 4.00685 15.8381 4.00685 15.5449C4.00685 15.2525 4.28859 15.002 4.62222 15.002L13.6451 15.002C13.9784 15.002 14.2602 15.2296 14.2856 15.5449C14.2856 15.8385 14.0554 16.1976 13.7221 16.1976L13.7221 16.1976L13.7221 16.1976ZM13.6022 11.993L4.53799 11.993C4.2038 11.993 3.99123 11.678 3.99123 11.3844C3.99123 11.0912 4.27353 10.7976 4.60744 10.7976L13.6457 10.7976C13.9798 10.7976 14.2621 11.0695 14.2873 11.3844C14.2873 11.678 13.9355 11.993 13.6022 11.993L13.6022 11.993L13.6022 11.993ZM13.6022 7.79443L4.53799 7.79443C4.2038 7.79443 3.99123 7.47952 3.99123 7.18625C3.99123 6.89268 4.27353 6.59914 4.60744 6.59914L13.6457 6.59914C13.9798 6.59914 14.2621 6.87101 14.2873 7.18625C14.2873 7.47949 13.9355 7.79443 13.6022 7.79443L13.6022 7.79443L13.6022 7.79443Z" transform="translate(3 1.5)" id="Shape" fill="#FFFFFF" stroke="none" />
  </g>
</svg>