<?xml version="1.0" encoding="utf-8"?>
<svg width="22px" height="22px" viewbox="0 0 22 22" version="1.1" xmlns:xlink="http://www.w3.org/1999/xlink" xmlns="http://www.w3.org/2000/svg">
  <g id="inspection">
    <path d="M0.197176 4.73472C0.113595 4.90772 0.0558856 5.09144 0.0253929 5.28L21.1139 5.28C21.094 5.02605 21.0252 4.77782 20.9108 4.54914L19.1826 1.09422C18.8472 0.42359 18.1617 0 17.4118 0L3.72707 -1.90735e-06C2.96741 -1.90735e-06 2.27472 0.434629 1.94425 1.11864L0.197176 4.73472ZM1.98 21.12C0.886477 21.12 0 20.2335 0 19.14L0 7.26L21.12 7.26L21.12 16.4958C21.1177 13.9462 19.0501 11.88 16.5 11.88C13.9484 11.88 11.88 13.9484 11.88 16.5C11.88 19.0516 13.9484 21.12 16.5 21.12L1.98 21.12ZM9.24 8.58L3.96 8.58L3.96 10.56L9.24 10.56L9.24 8.58ZM16.368 13.2C18.1176 13.2 19.536 14.6184 19.536 16.368C19.536 16.9496 19.3793 17.4946 19.1057 17.9631L21.0067 19.8641L19.8866 20.9841L17.9915 19.089C17.5167 19.3729 16.9614 19.536 16.368 19.536C14.6184 19.536 13.2 18.1176 13.2 16.368C13.2 14.6184 14.6184 13.2 16.368 13.2ZM16.368 15.18C15.7119 15.18 15.18 15.7119 15.18 16.368C15.18 17.0241 15.7119 17.556 16.368 17.556C17.0241 17.556 17.556 17.0241 17.556 16.368C17.556 15.7119 17.0241 15.18 16.368 15.18Z" id="形状结合" fill="#A0BDF8" fill-rule="evenodd" stroke="none" />
  </g>
</svg>