<?xml version="1.0" encoding="utf-8"?>
<svg width="20px" height="23px" viewbox="0 0 20 23" version="1.1" xmlns:xlink="http://www.w3.org/1999/xlink" xmlns="http://www.w3.org/2000/svg">
  <g id="default-template" opacity="0.6">
    <path d="M5.59268 0C4.43289 0 3.49268 0.940201 3.49268 2.1L3.49269 19.0061L17.6134 19.0061C18.7732 19.0061 19.7134 18.0659 19.7134 16.9061L19.7134 2.1C19.7134 0.940201 18.7732 0 17.6134 0L5.59268 0ZM0 4.19269L0 19.2427C0 20.9824 1.4103 22.3927 3.15 22.3927L16.45 22.3927L16.45 20.2927L2.1 20.2927L2.1 19.2427L2.1 16.7927L2.1 4.19269L0 4.19269Z" transform="translate(0 0.0073145246)" id="形状结合" fill="#FFFFFF" fill-rule="evenodd" stroke="none" />
    <path d="M1.4845 2.63547L0 4.12082L2.89902 7.01819L8.48095 1.49241L7.00355 0L2.90609 4.05625L1.4845 2.63547Z" transform="translate(7.657749 6.253794)" id="路径-22" fill="#145DEF" fill-rule="evenodd" stroke="none" />
  </g>
</svg>